<svg version="1.1" id="Layer_1" xmlns="http://www.w3.org/2000/svg" xmlns:xlink="http://www.w3.org/1999/xlink" x="0px" y="0px"
	 width="100%" viewBox="0 0 465 141" enable-background="new 0 0 465 141" xml:space="preserve">
<path fill="none" opacity="1.000000" stroke="#000000" stroke-linecap="round" stroke-linejoin="round" stroke-width="3.000000"
	d="
M351.000000,56.500000 
	C350.613525,46.212975 343.724731,39.623508 332.498352,39.031544 
	C327.451385,38.765415 322.646576,39.194057 317.919342,41.856792 
	C312.898285,44.685001 310.111084,48.543583 310.098450,54.000229 
	C310.084106,60.193588 313.300232,63.905457 320.014801,65.951401 
	C327.282776,68.165962 334.746948,69.750336 341.975861,72.075050 
	C348.331635,74.118973 352.958771,78.545464 352.819183,85.496368 
	C352.697662,91.545692 349.350586,96.641792 343.468140,98.917656 
	C334.864288,102.246429 325.893188,102.365929 317.564270,98.366188 
	C310.432617,94.941406 307.627655,88.367805 308.000000,80.500000 
"/>
<path fill="none" opacity="1.000000" stroke="#000000" stroke-linecap="round" stroke-linejoin="round" stroke-width="3.000000"
	d="
M409.000000,56.500000 
	C408.613525,46.212975 401.724731,39.623497 390.498352,39.031540 
	C385.451385,38.765415 380.646606,39.194073 375.919342,41.856804 
	C370.898285,44.685013 368.111084,48.543583 368.098450,54.000229 
	C368.084106,60.193588 371.300232,63.905457 378.014801,65.951393 
	C385.282776,68.165955 392.746948,69.750336 399.975861,72.075043 
	C406.331635,74.118973 410.958771,78.545464 410.819183,85.496368 
	C410.697662,91.545692 407.350586,96.641785 401.468140,98.917648 
	C392.864258,102.246414 383.893188,102.365929 375.564270,98.366188 
	C368.432617,94.941406 365.627655,88.367805 366.000000,80.500000 
"/>
<path fill="none" opacity="1.000000" stroke="#000000" stroke-linecap="round" stroke-linejoin="round" stroke-width="3.000000"
	d="
M151.000000,83.000000 
	C153.641663,83.937881 152.882126,86.718704 153.927521,88.541565 
	C159.790970,98.765610 168.985214,102.474815 179.973068,100.821098 
	C189.087479,99.449356 194.914963,93.612999 198.141495,84.550377 
	C202.702148,71.740471 202.101456,59.942867 194.535721,48.476429 
	C187.573242,37.924255 170.825912,35.850452 160.464874,44.457714 
	C156.492462,47.757725 154.530807,52.285709 152.000000,56.500000 
"/>
<path fill="none" opacity="1.000000" stroke="#000000" stroke-linecap="round" stroke-linejoin="round" stroke-width="3.000000"
	d="
M34.000000,69.500000 
	C35.771816,68.656639 37.661182,69.018066 39.500027,69.014427 
	C52.999977,68.987709 66.500076,69.020256 79.999893,68.971436 
	C81.495087,68.966026 83.091537,69.490524 84.497437,68.609978 
	C84.876808,52.354027 76.158127,38.357582 57.509792,39.213390 
	C45.215298,39.777607 37.151432,47.974789 34.129646,61.528904 
	C32.349106,69.515465 32.978745,77.585457 35.914040,85.531754 
	C40.986893,99.264755 52.840950,102.846260 64.994011,100.469376 
	C75.962456,98.324173 81.950760,91.236557 84.000000,80.500000 
"/>
<path fill="none" opacity="1.000000" stroke="#000000" stroke-linecap="round" stroke-linejoin="round" stroke-width="3.000000"
	d="
M246.000000,69.500000 
	C247.771820,68.656639 249.661179,69.018066 251.500031,69.014427 
	C264.999969,68.987709 278.500061,69.020248 291.999908,68.971428 
	C293.495087,68.966026 295.091553,69.490524 296.497437,68.609978 
	C296.876801,52.353943 288.158051,38.357586 269.509796,39.213394 
	C257.215363,39.777607 249.151443,47.974716 246.129639,61.528900 
	C244.349106,69.515457 244.978745,77.585457 247.914032,85.531754 
	C252.986893,99.264778 264.840973,102.846252 276.994019,100.469368 
	C287.962433,98.324173 293.950745,91.236557 296.000000,80.500000 
"/>
<path fill="none" opacity="1.000000" stroke="#000000" stroke-linecap="round" stroke-linejoin="round" stroke-width="3.000000"
	d="
M216.000000,40.500000 
	C216.000000,60.500000 216.000000,80.500000 216.000000,100.500000 
"/>
<path fill="none" opacity="1.000000" stroke="#000000" stroke-linecap="round" stroke-linejoin="round" stroke-width="3.000000"
	d="
M150.000000,40.500000 
	C150.000000,67.500000 150.000000,94.500000 150.000000,121.500000 
"/>
<path fill="none" opacity="1.000000" stroke="#000000" stroke-linecap="round" stroke-linejoin="round" stroke-width="3.000000"
	d="
M137.000000,40.999996 
	C129.801956,50.309269 122.603912,59.618538 115.355186,68.993347 
	C123.275024,79.211563 131.131729,89.360291 139.019150,99.485077 
	C139.369598,99.934921 140.000000,100.166672 140.500000,100.500000 
"/>
<path fill="none" opacity="1.000000" stroke="#000000" stroke-linecap="round" stroke-linejoin="round" stroke-width="3.000000"
	d="
M115.000000,70.000000 
	C107.333336,79.833336 99.672569,89.671295 91.981033,99.485138 
	C91.628937,99.934387 91.000000,100.166664 90.500000,100.500000 
"/>
<path fill="none" opacity="1.000000" stroke="#000000" stroke-linecap="round" stroke-linejoin="round" stroke-width="3.000000"
	d="
M94.000000,41.000000 
	C99.666672,48.500000 105.304825,56.021839 111.020866,63.484016 
	C112.380119,65.258492 114.000000,66.833336 115.500000,68.500000 
"/>
<path fill="none" opacity="1.000000" stroke="#000000" stroke-linecap="round" stroke-linejoin="round" stroke-width="3.000000"
	d="
M240.500000,39.000000 
	C229.437485,39.000000 222.865677,43.503792 218.435745,53.972813 
	C218.224243,54.472675 218.213104,55.713100 217.000000,55.500000 
"/>
</svg>