<?xml version="1.0" standalone="no"?>
<!DOCTYPE svg PUBLIC "-//W3C//DTD SVG 20010904//EN"
 "http://www.w3.org/TR/2001/REC-SVG-20010904/DTD/svg10.dtd">
<svg version="1.0" xmlns="http://www.w3.org/2000/svg"
 width="1280.000000pt" height="1280.000000pt" viewBox="0 0 1280.000000 1280.000000"
 preserveAspectRatio="xMidYMid meet">
<metadata>
Created by potrace 1.15, written by Peter Selinger 2001-2017
</metadata>
<g transform="translate(0.000000,1280.000000) scale(0.100000,-0.100000)"
fill="#000000" stroke="none">
<path d="M5185 11135 c-60 -13 -132 -24 -158 -24 -26 -1 -64 -8 -85 -17 -20
-8 -70 -22 -111 -29 -41 -8 -82 -21 -91 -30 -9 -8 -28 -15 -43 -15 -14 0 -59
-13 -100 -30 -42 -16 -82 -30 -91 -30 -8 0 -36 -11 -62 -25 -26 -14 -55 -25
-65 -25 -10 0 -21 -5 -24 -11 -4 -6 -68 -40 -144 -75 -75 -36 -143 -69 -151
-75 -8 -5 -32 -18 -52 -29 -21 -11 -38 -24 -38 -28 0 -4 -26 -23 -57 -41 -82
-48 -147 -93 -156 -108 -4 -7 -14 -13 -22 -13 -8 0 -22 -8 -32 -18 -10 -10
-47 -41 -83 -69 -68 -54 -383 -371 -458 -461 -23 -28 -76 -102 -116 -164 -41
-62 -84 -124 -96 -138 -22 -26 -59 -89 -117 -200 -19 -36 -41 -72 -49 -81 -8
-8 -14 -21 -14 -28 0 -7 -10 -26 -21 -43 -12 -16 -25 -44 -30 -61 -16 -61 -55
-164 -75 -198 -12 -19 -23 -54 -27 -78 -3 -23 -13 -48 -22 -54 -9 -7 -20 -37
-25 -72 -5 -33 -17 -80 -26 -105 -9 -25 -18 -72 -21 -105 -2 -33 -10 -76 -18
-95 -20 -55 -35 -150 -35 -226 0 -38 -9 -120 -20 -183 -21 -121 -25 -282 -9
-366 9 -50 21 -139 40 -318 5 -54 17 -116 25 -139 7 -22 14 -61 14 -87 1 -25
10 -71 21 -101 11 -30 24 -81 28 -112 5 -32 19 -70 30 -84 12 -15 21 -40 21
-56 0 -15 13 -54 30 -85 16 -31 30 -62 30 -70 0 -8 8 -30 19 -51 10 -20 21
-52 24 -70 4 -18 20 -49 36 -70 17 -20 62 -99 100 -175 38 -76 82 -152 96
-169 15 -18 40 -55 57 -83 35 -59 92 -138 166 -226 29 -35 65 -79 79 -96 15
-18 30 -33 35 -33 4 0 25 -19 45 -42 104 -115 272 -270 349 -323 32 -22 82
-58 109 -81 28 -23 66 -49 85 -58 19 -9 67 -39 105 -67 39 -27 122 -75 185
-106 63 -30 138 -66 165 -80 46 -23 183 -77 230 -90 11 -3 27 -12 36 -19 8 -8
45 -18 81 -23 36 -5 75 -14 86 -20 11 -6 44 -16 74 -22 29 -6 78 -19 108 -29
31 -10 109 -26 175 -34 66 -9 145 -23 175 -31 80 -21 546 -21 645 1 39 8 99
19 135 25 142 20 206 33 230 44 14 7 44 15 68 19 24 3 69 15 100 25 31 11 76
22 100 25 24 4 53 13 65 21 12 7 40 18 62 24 48 11 142 50 176 72 13 9 35 20
49 24 35 11 246 120 296 153 23 15 59 39 81 54 23 15 56 33 76 41 19 9 39 21
43 29 5 8 32 29 59 48 28 18 73 53 102 77 28 23 56 43 62 43 6 0 18 12 28 27
25 38 112 121 134 128 10 4 19 10 19 15 0 5 9 12 20 15 11 4 26 21 34 39 7 17
33 49 56 71 66 61 92 88 127 136 18 24 47 59 65 78 39 41 111 143 135 191 10
19 36 60 58 90 44 59 60 87 127 223 24 48 57 116 74 150 18 34 35 78 39 97 4
19 15 51 25 70 10 19 32 82 50 140 17 58 40 128 50 155 11 28 22 70 25 95 3
25 14 77 25 115 10 39 23 129 29 200 6 72 18 155 26 185 23 87 21 429 -4 551
-11 52 -23 139 -26 194 -4 55 -15 129 -25 165 -10 36 -21 89 -25 118 -3 29
-14 72 -24 95 -11 23 -34 92 -52 152 -18 61 -41 126 -51 145 -10 19 -18 49
-18 65 0 17 -11 46 -25 65 -14 19 -25 40 -25 48 0 8 -8 26 -18 40 -10 15 -35
63 -56 107 -21 44 -42 87 -47 95 -5 8 -18 34 -29 58 -11 23 -23 42 -29 42 -5
0 -24 24 -42 53 -66 107 -130 203 -147 223 -9 12 -32 39 -50 60 -18 21 -54 66
-80 99 -49 63 -227 245 -274 280 -15 11 -71 58 -125 105 -54 47 -116 97 -138
110 -22 13 -44 30 -50 36 -11 14 -114 84 -123 84 -3 0 -24 12 -46 27 -23 14
-52 33 -66 42 -14 9 -52 29 -85 43 -33 15 -98 48 -145 73 -84 46 -113 59 -220
97 -30 10 -83 30 -117 44 -34 13 -71 24 -84 24 -12 0 -36 9 -53 19 -17 11 -58
24 -91 29 -33 6 -78 17 -100 26 -22 8 -59 15 -82 16 -23 0 -98 11 -167 25
-119 24 -142 25 -443 24 -290 -1 -328 -3 -428 -24z m912 -356 c49 -19 137 -38
179 -39 26 0 54 -9 76 -23 19 -13 57 -26 86 -30 28 -3 61 -13 74 -21 13 -8 41
-17 63 -21 64 -10 282 -107 298 -132 4 -7 23 -15 42 -19 19 -3 39 -12 45 -20
7 -7 28 -18 48 -25 20 -6 62 -30 92 -53 82 -62 131 -95 207 -140 26 -16 74
-55 106 -88 33 -32 64 -58 70 -58 13 0 267 -258 267 -271 0 -5 18 -27 41 -48
42 -42 77 -86 104 -135 9 -16 37 -53 61 -83 24 -29 44 -60 44 -67 0 -7 11 -23
24 -35 13 -12 59 -93 101 -179 42 -86 86 -174 96 -194 10 -20 19 -45 19 -55 0
-10 14 -45 30 -78 16 -33 33 -76 36 -95 4 -19 13 -44 20 -55 7 -11 16 -45 20
-75 3 -30 14 -68 24 -85 11 -20 19 -60 23 -116 3 -57 11 -97 23 -120 18 -32
19 -63 19 -474 0 -399 -2 -443 -17 -472 -11 -19 -20 -65 -24 -120 -4 -52 -13
-102 -24 -123 -9 -19 -20 -57 -24 -85 -4 -27 -16 -63 -26 -80 -9 -16 -23 -52
-29 -78 -6 -27 -18 -59 -25 -70 -8 -12 -17 -38 -21 -57 -4 -19 -16 -50 -26
-68 -10 -18 -19 -38 -19 -45 0 -18 -130 -270 -158 -306 -15 -18 -31 -41 -37
-50 -95 -159 -218 -310 -402 -494 -148 -148 -237 -228 -282 -252 -20 -11 -60
-39 -89 -63 -30 -23 -58 -42 -63 -42 -4 0 -23 -13 -41 -28 -18 -16 -60 -41
-93 -57 -33 -16 -67 -34 -75 -40 -8 -7 -32 -18 -52 -25 -21 -6 -38 -15 -38
-20 0 -4 -19 -15 -42 -24 -40 -16 -115 -50 -179 -82 -14 -7 -46 -16 -70 -20
-24 -4 -53 -13 -64 -20 -11 -7 -51 -20 -90 -30 -38 -9 -83 -24 -100 -32 -16
-8 -66 -19 -111 -23 -47 -4 -95 -15 -115 -26 -32 -17 -65 -18 -469 -18 -426 0
-436 0 -497 23 -35 12 -86 22 -115 22 -29 0 -66 7 -83 16 -16 9 -57 23 -90 30
-33 8 -79 23 -102 34 -24 11 -53 20 -65 20 -13 0 -44 11 -70 25 -26 14 -53 25
-60 25 -11 0 -145 63 -188 89 -8 5 -31 16 -50 25 -105 50 -190 97 -190 105 0
5 -21 21 -47 36 -61 35 -121 79 -184 132 -27 24 -62 49 -77 57 -15 8 -57 46
-94 85 -38 38 -86 85 -108 102 -22 18 -40 38 -40 45 0 7 -9 16 -20 19 -11 3
-20 12 -20 18 0 7 -26 39 -57 72 -30 33 -76 89 -100 125 -24 36 -71 103 -105
150 -33 47 -68 104 -78 126 -10 23 -23 45 -29 48 -6 4 -15 25 -21 46 -6 22
-15 40 -20 40 -10 0 -90 158 -90 178 0 6 -9 26 -20 44 -11 18 -20 42 -20 53 0
11 -9 37 -20 57 -11 21 -23 56 -26 80 -4 23 -15 56 -25 73 -10 16 -21 53 -24
80 -4 28 -16 70 -26 94 -10 24 -19 62 -20 85 0 41 -18 146 -38 221 -13 50 -14
673 -1 730 23 100 31 145 40 215 12 96 53 253 74 285 9 13 16 35 16 47 0 13
12 50 25 83 14 33 25 65 25 70 0 6 12 33 25 60 14 28 25 56 25 63 0 21 57 126
79 146 12 11 21 29 21 41 0 11 11 36 25 55 14 19 25 39 25 44 0 10 26 51 82
134 13 19 33 43 46 55 12 11 22 24 22 28 0 14 73 115 128 179 179 203 366 373
535 485 45 30 96 66 112 81 37 32 213 124 236 124 10 0 22 6 26 14 7 12 93 56
207 105 27 12 68 24 90 27 23 4 51 13 63 20 13 8 44 17 70 21 27 3 68 17 92
30 24 12 59 23 78 23 42 0 121 18 148 33 11 6 79 14 150 18 187 10 789 1 822
-12z"/>
<path d="M5245 9577 c-16 -7 -61 -19 -100 -26 -116 -23 -302 -102 -385 -165
-25 -19 -50 -35 -55 -35 -18 -1 -121 -114 -148 -162 -14 -25 -33 -52 -42 -59
-50 -42 -129 -262 -160 -450 -24 -138 -15 -434 15 -520 4 -14 11 -60 14 -103
5 -69 4 -79 -15 -98 -11 -11 -27 -18 -34 -15 -23 8 -75 -60 -75 -98 0 -72 47
-222 100 -314 28 -50 57 -95 63 -99 7 -5 21 -21 30 -36 10 -16 33 -37 51 -48
42 -25 72 -81 80 -150 7 -66 100 -353 134 -414 6 -11 25 -51 42 -90 53 -117
81 -169 110 -200 15 -16 38 -50 51 -74 13 -24 30 -53 37 -65 17 -27 10 -120
-14 -206 -16 -54 -28 -74 -79 -125 -49 -49 -77 -67 -151 -98 -180 -76 -194
-98 -89 -147 35 -16 68 -30 72 -30 5 0 24 -8 43 -19 19 -10 53 -24 75 -31 22
-6 58 -21 81 -31 22 -10 50 -19 62 -19 13 0 48 -9 79 -20 31 -11 86 -22 122
-25 36 -3 98 -12 136 -20 39 -8 90 -18 116 -23 25 -4 137 -7 250 -6 156 1 217
6 259 18 30 9 95 21 144 26 49 5 116 19 148 30 32 11 66 20 76 20 9 0 33 8 52
18 19 11 50 22 68 25 18 4 60 20 95 36 34 16 89 41 122 56 33 15 72 39 87 53
l27 25 -22 17 c-12 9 -62 36 -112 60 -164 79 -245 191 -245 341 0 57 10 76 73
144 26 28 87 127 87 141 0 7 17 45 39 86 21 40 53 120 70 178 18 58 41 132 52
166 10 33 19 80 19 105 0 24 5 62 11 84 6 22 14 60 19 85 4 27 15 48 26 55 24
13 87 76 143 144 37 44 47 68 71 159 16 59 31 146 35 193 l7 86 -31 35 -31 36
0 276 c0 163 -4 295 -11 323 -6 27 -17 74 -25 105 -8 32 -14 67 -14 78 0 12
-9 42 -21 68 -11 26 -32 76 -47 111 -19 45 -47 85 -92 132 -36 37 -77 81 -93
98 -79 86 -207 156 -332 180 -35 7 -208 88 -355 165 -25 13 -68 26 -97 30 -29
4 -71 14 -95 23 -59 22 -477 30 -523 10z"/>
<path d="M9377 8053 c-4 -3 -7 -181 -7 -395 l0 -388 390 0 390 0 -2 393 -3
392 -381 3 c-209 1 -383 -1 -387 -5z"/>
<path d="M8792 6588 l3 -393 385 0 385 0 3 393 2 392 -390 0 -390 0 2 -392z"/>
<path d="M9875 6938 c-3 -7 -4 -184 -3 -393 l3 -380 390 0 390 0 0 390 0 390
-388 3 c-305 2 -389 0 -392 -10z"/>
<path d="M9675 5967 c-3 -6 -4 -181 -3 -387 l3 -375 393 -3 392 -2 0 390 0
390 -390 0 c-304 0 -392 -3 -395 -13z"/>
<path d="M2007 5783 c-4 -3 -7 -181 -7 -395 l0 -388 389 0 c345 0 390 2 395
16 3 9 6 181 6 383 0 272 -3 370 -12 379 -9 9 -109 12 -388 12 -207 0 -380 -3
-383 -7z"/>
<path d="M8173 5465 l-323 -324 0 -57 c0 -55 2 -59 48 -103 l47 -45 5 -147 c4
-112 9 -151 20 -165 9 -11 25 -37 35 -58 11 -22 30 -58 41 -80 13 -25 254
-275 613 -636 325 -327 604 -608 619 -625 16 -16 57 -57 93 -90 35 -33 78 -76
95 -95 17 -19 48 -51 70 -70 21 -20 53 -52 69 -70 17 -19 62 -64 100 -100 39
-35 71 -68 73 -72 2 -4 135 -139 295 -300 161 -162 327 -332 369 -379 43 -47
97 -99 120 -115 23 -16 52 -38 64 -49 12 -11 48 -33 80 -50 58 -29 63 -29 209
-30 147 0 151 1 207 30 92 49 172 115 249 204 29 35 63 69 73 75 10 6 33 26
50 45 46 49 138 142 176 176 18 17 41 50 52 75 11 25 25 52 32 60 7 8 24 52
39 96 31 94 37 215 13 250 -8 11 -21 46 -30 79 -8 32 -22 62 -30 67 -8 5 -28
32 -45 62 -20 34 -128 152 -307 332 -151 153 -279 283 -284 287 -27 26 -120
119 -146 148 -17 19 -55 57 -85 84 -30 28 -70 68 -90 90 -19 22 -49 54 -67 70
-40 37 -1259 1264 -1311 1320 -96 103 -279 270 -311 283 -19 7 -42 20 -50 26
-27 22 -119 36 -239 36 l-117 0 -44 45 c-42 43 -47 45 -100 45 l-55 0 -322
-325z"/>
<path d="M3030 5183 c-79 -89 -125 -178 -156 -303 -18 -74 -20 -600 -1 -679
14 -62 66 -123 125 -148 20 -8 50 -27 67 -41 16 -13 48 -33 70 -44 22 -10 51
-25 65 -33 45 -25 94 -47 145 -62 48 -14 95 -33 180 -73 54 -25 259 -100 273
-100 16 0 139 -38 180 -56 18 -8 43 -14 55 -14 12 0 58 -11 102 -24 139 -43
248 -68 326 -76 42 -4 119 -17 170 -28 52 -11 132 -23 179 -27 46 -3 127 -15
180 -27 90 -20 123 -21 680 -21 586 0 598 0 740 35 25 6 101 15 170 18 69 4
157 15 195 25 39 9 95 20 125 25 30 4 100 20 155 35 55 15 143 38 195 51 161
40 318 89 525 165 28 10 74 27 103 37 29 11 58 24 63 29 12 12 -67 108 -141
171 -27 24 -50 49 -50 57 0 12 -22 43 -103 140 -66 79 -138 258 -152 375 -12
100 -23 130 -48 130 -12 0 -35 -7 -52 -16 -16 -9 -50 -27 -75 -40 -25 -13 -52
-28 -60 -34 -35 -22 -194 -90 -254 -109 -35 -11 -82 -31 -103 -44 -40 -25
-122 -52 -188 -62 -22 -4 -62 -15 -90 -25 -27 -10 -77 -24 -110 -31 -33 -7
-69 -17 -80 -22 -11 -6 -51 -14 -90 -18 -100 -10 -195 -28 -219 -42 -16 -9
-148 -12 -516 -12 -487 1 -496 1 -565 24 -38 12 -99 26 -135 31 -36 4 -100 18
-144 29 -43 12 -87 21 -98 21 -10 0 -35 9 -56 19 -20 10 -74 26 -118 34 -47 9
-110 30 -151 50 -38 19 -96 44 -130 55 -98 32 -441 207 -481 245 -15 14 -50
37 -78 51 -27 14 -59 35 -70 47 -10 11 -41 33 -69 46 -27 14 -86 59 -130 100
-44 41 -94 81 -112 88 -17 7 -58 41 -91 74 -35 36 -67 61 -79 61 -13 0 -41
-22 -73 -57z"/>
<path d="M1237 4753 c-10 -9 -8 -755 1 -771 7 -9 92 -12 393 -10 l384 3 0 390
0 390 -386 3 c-212 1 -388 -1 -392 -5z"/>
<path d="M1650 3470 l0 -390 393 2 392 3 0 385 0 385 -392 3 -393 2 0 -390z"/>
<path d="M5750 2940 l0 -70 95 0 95 0 0 70 0 70 -95 0 -95 0 0 -70z"/>
<path d="M6130 2785 l0 -85 -45 0 -45 0 0 -70 0 -70 44 0 44 0 4 -222 c5 -243
10 -270 64 -319 41 -38 96 -53 168 -46 91 9 98 13 91 56 -3 20 -8 50 -11 66
-4 29 -7 31 -40 27 -24 -3 -41 1 -54 13 -19 17 -20 32 -20 222 l0 203 60 0 60
0 0 70 0 70 -60 0 -60 0 0 85 0 85 -100 0 -100 0 0 -85z"/>
<path d="M9240 2786 l0 -85 -47 -3 -48 -3 0 -65 0 -65 47 -3 46 -3 4 -227 c3
-212 5 -230 25 -268 12 -23 38 -52 58 -64 65 -40 225 -37 233 4 2 10 1 43 -3
72 -6 51 -8 54 -31 48 -37 -9 -69 3 -82 31 -8 17 -12 92 -12 215 l0 189 63 3
62 3 0 65 0 65 -62 3 -63 3 0 84 0 85 -95 0 -95 0 0 -84z"/>
<path d="M1422 2408 l3 -393 379 -3 c273 -2 383 1 392 9 12 10 14 79 12 393
l-3 381 -393 3 -392 2 2 -392z"/>
<path d="M2850 2693 c-19 -10 -44 -32 -55 -50 -11 -18 -23 -32 -27 -33 -4 0
-8 19 -10 43 l-3 42 -87 3 -88 3 0 -361 0 -360 95 0 95 0 0 248 0 249 25 23
c21 20 39 25 95 28 l69 4 6 42 c3 22 6 61 8 86 l2 45 -45 3 c-28 1 -58 -4 -80
-15z"/>
<path d="M3233 2689 c-142 -55 -223 -232 -194 -427 19 -126 83 -217 186 -264
95 -43 316 -26 385 30 l23 18 -18 55 c-10 30 -19 57 -21 60 -2 4 -30 -4 -61
-17 -80 -32 -177 -33 -223 -1 -36 24 -64 65 -75 110 l-7 27 217 0 218 0 -5
108 c-6 129 -29 192 -93 251 -76 70 -222 92 -332 50z m186 -144 c30 -15 51
-59 51 -106 l0 -29 -121 0 -121 0 7 28 c11 46 36 92 59 107 26 19 89 19 125 0z"/>
<path d="M3945 2693 c-69 -24 -145 -101 -175 -178 -34 -85 -34 -263 -2 -346
46 -117 137 -184 265 -196 167 -15 312 77 333 215 l7 42 -91 0 -90 0 -7 -30
c-10 -46 -58 -80 -111 -80 -104 0 -137 53 -137 221 -1 163 34 219 137 219 55
0 101 -39 111 -93 l7 -37 84 0 c45 0 86 5 89 10 13 21 -17 121 -48 163 -49 65
-129 100 -236 104 -61 2 -100 -2 -136 -14z"/>
<path d="M4751 2693 c-18 -9 -43 -31 -55 -50 -11 -18 -24 -33 -28 -33 -5 0 -8
20 -8 45 l0 45 -90 0 -90 0 0 -360 0 -360 95 0 95 0 0 241 c0 146 4 248 10
260 17 30 64 49 124 49 63 0 61 -3 71 108 l7 72 -48 0 c-27 0 -64 -8 -83 -17z"/>
<path d="M6834 2686 c-28 -13 -60 -35 -71 -49 -25 -32 -33 -26 -33 25 l0 38
-90 0 -90 0 0 -360 0 -360 95 0 95 0 2 267 3 267 34 23 c51 34 114 32 152 -6
l29 -29 1 -246 c1 -135 2 -252 3 -258 1 -10 27 -13 96 -13 l95 0 5 265 5 264
34 23 c37 25 98 31 133 12 42 -23 48 -63 48 -324 l0 -245 96 0 95 0 -3 283
c-3 281 -3 283 -29 332 -36 71 -89 106 -173 112 -84 7 -141 -13 -191 -68 l-36
-40 -39 43 c-63 72 -169 89 -266 44z"/>
<path d="M7909 2694 c-67 -20 -139 -89 -175 -166 -27 -59 -29 -71 -29 -188 0
-114 2 -130 26 -180 36 -77 80 -124 147 -157 52 -26 66 -28 167 -27 88 0 121
5 166 22 93 37 93 37 68 109 l-20 62 -47 -21 c-64 -28 -188 -36 -229 -14 -38
19 -67 58 -81 108 l-10 38 215 2 216 3 -2 99 c-4 168 -56 260 -175 305 -67 25
-167 27 -237 5z m179 -150 c28 -19 38 -39 47 -91 l7 -43 -121 0 c-135 0 -137
1 -107 74 28 68 118 100 174 60z"/>
<path d="M8734 2692 c-22 -11 -57 -36 -77 -57 l-36 -37 -3 49 -3 48 -87 3 -88
3 0 -361 0 -360 95 0 95 0 2 267 3 267 34 23 c47 32 120 32 156 0 38 -32 45
-80 44 -332 l-1 -220 96 -3 96 -3 0 254 c0 195 -3 266 -15 312 -29 109 -88
156 -205 162 -48 3 -75 -1 -106 -15z"/>
<path d="M4970 2442 c0 -304 7 -341 74 -408 88 -88 252 -84 338 8 l27 29 6
-46 7 -45 84 0 84 0 0 360 0 360 -95 0 -95 0 0 -264 0 -265 -31 -22 c-38 -27
-108 -36 -150 -19 -54 23 -59 50 -59 325 l0 245 -95 0 -95 0 0 -258z"/>
<path d="M5750 2340 l0 -360 95 0 95 0 0 360 0 360 -95 0 -95 0 0 -360z"/>
</g>
</svg>
