<?xml version="1.0" encoding="utf-8"?>
<!-- Generator: Adobe Illustrator 19.0.0, SVG Export Plug-In . SVG Version: 6.00 Build 0)  -->
<svg version="1.1" id="layer" xmlns="http://www.w3.org/2000/svg" xmlns:xlink="http://www.w3.org/1999/xlink" x="0px" y="0px"
	 viewBox="-153 -46 652 652" style="enable-background:new -153 -46 652 652;" xml:space="preserve">
<style type="text/css">
	.st0{fill:#FCDC00;}
	.st1{fill:#173647;}
</style>
<path id="fill" class="st0" d="M-57.4,333.8c-38.7,0-70.2-31.4-70.2-70.2s31.4-70,70.2-70s70.2,31.4,70.2,70.2
	S-18.7,333.8-57.4,333.8z"/>
<path id="border" class="st1" d="M-57.4,197.1c36.7,0,66.5,29.8,66.5,66.5s-29.8,66.5-66.5,66.5s-66.5-29.8-66.5-66.5
	S-94.1,197.1-57.4,197.1 M-57.4,190C-98,190-131,223-131,263.6s33.1,73.6,73.6,73.6s73.6-33.1,73.6-73.6S-16.9,190-57.4,190
	L-57.4,190z"/>
<path id="icon" class="st1" d="M-15.1,260.8l5.7-8.1l-6.1-14.8l-9.7-1.8l-4.3-4.3l-1.6-9.7l-15-6.3l-8.1,5.7h-6.1l-8.1-5.7l-15,6.1
	l-1.8,9.7l-4.5,4.3l-9.7,1.8l-6.3,14.8l5.7,8.1v6.1l-5.7,8.1l6.1,15l9.7,1.8l4.3,4.3l1.8,9.7l14.8,6.3l8.1-5.7h6.1l8.1,5.7l15-6.1
	l1.8-9.7l4.5-4.3l9.7-1.6l6.3-14.8l-5.7-8.1V260.8z M-17.3,276l-3.2,7.9l-8.1,1.4l-7.5,7.5l-1.4,8.1l-7.9,3.2l-6.7-4.7h-10.5
	l-6.9,4.7l-7.9-3.2l-1.4-8.1l-7.3-7.5l-8.1-1.4l-3.2-7.9l4.7-6.7v-10.5l-4.7-6.9l3.2-7.9l8.1-1.4l7.5-7.5l1.4-8.1l7.9-3.2l6.7,4.7
	h10.5l6.9-4.7l7.9,3.2l1.4,8.1l7.5,7.5l8.1,1.4l3.2,7.9l-4.7,6.9v10.5L-17.3,276z M-31.3,265.6c0,14.4-11.8,26.2-26.2,26.2
	s-26.2-11.8-26.2-26.2c0-6.9,2.6-13.6,7.7-18.5l4.9,4.9c-3.6,3.6-5.7,8.5-5.7,13.6c0,7.7,4.5,14.2,10.9,17.2l9.5-15l-14.6-3l16-28.6
	l6.1,3.4l-11.4,20.3l15.4,3.4l-13.6,21.5c0.4,0,0.6,0,1,0c10.5,0,19.1-8.5,19.1-19.1c0-5.7-2.4-10.9-6.9-14.6l4.5-5.5
	C-34.7,250.6-31.3,257.9-31.3,265.6z"/>
<path id="soupui" class="st1" d="M93.6,275.8c0,5.9-2.2,10.5-6.5,14c-4.3,3.2-10.1,5.1-17.6,5.1c-8.1,0-14.2-1-18.5-3v-7.5
	c2.8,1.2,5.9,2,9.1,2.8c3.2,0.6,6.5,1,9.7,1c5.3,0,9.1-1,11.8-3c2.6-2,4.1-4.7,4.1-8.3c0-2.4-0.4-4.3-1.4-5.7
	c-1-1.4-2.4-2.8-4.7-4.1c-2.2-1.2-5.5-2.6-10.1-4.3c-6.3-2.2-10.7-4.9-13.4-7.9c-2.6-3-4.1-7.1-4.1-12.2c0-5.3,2-9.3,5.9-12.4
	s9.1-4.7,15.6-4.7c6.7,0,13,1.2,18.5,3.6l-2.4,6.9c-5.7-2.4-10.9-3.4-16.2-3.4c-4.3,0-7.5,0.8-9.7,2.6c-2.4,1.8-3.4,4.3-3.4,7.5
	c0,2.4,0.4,4.3,1.2,5.7s2.2,2.8,4.5,4.1c2,1.2,5.3,2.6,9.3,4.1c7.1,2.4,12,5.3,14.6,8.1C92.4,267.2,93.6,271.1,93.6,275.8z
	 M146.5,268.3c0,8.3-2,14.8-6.3,19.3c-4.3,4.7-9.9,6.9-17.2,6.9c-4.5,0-8.5-1-12.2-3.2c-3.4-2-6.3-5.3-8.1-9.1
	c-1.8-4.1-2.8-8.7-2.8-14c0-8.3,2-14.6,6.3-19.3c4.1-4.7,9.9-6.9,17.2-6.9c7.1,0,12.8,2.4,16.8,7.1
	C144.5,253.9,146.5,260.3,146.5,268.3z M107.8,268.3c0,6.5,1.2,11.4,3.9,14.8s6.5,5.1,11.4,5.1c5.1,0,8.9-1.6,11.4-5.1
	c2.6-3.4,3.9-8.3,3.9-14.8s-1.2-11.4-3.9-14.6c-2.6-3.2-6.5-5.1-11.6-5.1c-5.1,0-8.7,1.6-11.4,4.9
	C109.2,256.9,107.8,261.8,107.8,268.3z M187.3,293.6l-1.6-7.3h-0.4c-2.4,3.2-5.1,5.3-7.5,6.5c-2.4,1.2-5.7,1.6-9.3,1.6
	c-5.1,0-8.9-1.2-11.8-3.9c-2.8-2.6-4.3-6.3-4.3-11.2c0-10.1,8.1-15.6,24.5-16l8.5-0.2v-3.2c0-4.1-0.8-6.9-2.6-8.7
	c-1.6-1.8-4.5-2.8-8.1-2.8c-4.3,0-8.9,1.2-14.4,3.9l-2.4-5.9c2.4-1.4,5.3-2.4,8.1-3.2c3-0.8,5.9-1.2,8.9-1.2
	c6.1,0,10.5,1.4,13.4,4.1c2.8,2.6,4.5,6.9,4.5,13v34.7C192.8,293.6,187.3,293.6,187.3,293.6z M169.9,288.3c4.9,0,8.5-1.2,11.4-3.9
	c2.6-2.6,4.1-6.3,4.1-10.9v-4.7l-7.7,0.4c-6.1,0.2-10.5,1.2-13.2,2.8c-2.6,1.6-4.1,4.3-4.1,7.9c0,2.8,0.8,4.9,2.4,6.3
	C164.6,287.5,166.8,288.3,169.9,288.3z M227.7,294.6c-3.2,0-6.3-0.6-9.1-1.8c-2.6-1.2-5.1-3-6.9-5.7H211c0.4,3,0.6,5.7,0.6,8.5v20.9
	h-7.7v-73.6h6.3l1,6.9h0.4c2-2.8,4.3-4.9,6.9-6.1c2.6-1.2,5.7-1.8,8.9-1.8c6.7,0,12,2.2,15.6,6.9c3.6,4.7,5.5,10.9,5.5,19.3
	c0,8.3-1.8,14.8-5.5,19.5C239.4,292.4,234.3,294.6,227.7,294.6z M226.6,248.6c-5.3,0-8.9,1.4-11.2,4.3c-2.2,2.8-3.4,7.5-3.6,13.8
	v1.6c0,7.1,1.2,12.2,3.6,15.2s6.1,4.7,11.4,4.7c4.5,0,7.9-1.8,10.3-5.3c2.4-3.4,3.6-8.5,3.6-14.6c0-6.3-1.2-11.2-3.6-14.6
	C234.5,250.2,231.1,248.6,226.6,248.6z M309.8,226.1v43.8c0,7.7-2.2,13.8-6.9,18.2c-4.7,4.5-11.2,6.7-19.3,6.7s-14.4-2.2-18.9-6.7
	s-6.7-10.5-6.7-18.2v-43.8h7.9v44.2c0,5.7,1.6,9.9,4.7,13s7.7,4.5,13.6,4.5c5.7,0,10.1-1.4,13.2-4.5s4.7-7.3,4.7-13v-44.2H309.8z
	 M323.2,293.6v-67.5h7.9v67.5C331.1,293.6,323.2,293.6,323.2,293.6z"/>
<path class="st1" d="M246.7,332.5c0,0-5.1-0.6-7.1-0.6c-3,0-4.7,1-4.7,3.2c0,2.2,1.2,2.8,5.5,4.1c5.3,1.4,7.1,2.8,7.1,7.1
	c0,5.5-3.4,7.7-8.3,7.7c-3.2,0-8.1-1-8.1-1l0.4-3.2c0,0,4.9,0.6,7.5,0.6c3,0,4.5-1.4,4.5-4.1c0-2-1.2-2.8-4.9-3.6
	c-5.3-1.4-7.7-3-7.7-7.3c0-5.1,3.2-7.1,8.3-7.1c3.2,0,7.9,0.8,7.9,0.8L246.7,332.5z M257.3,328.9h6.9l5.5,19.3l5.5-19.3h7.1v24.7
	h-4.1v-21.3h-0.2l-6.3,20.5h-4.3l-6.3-20.5h-0.2v21.5h-4.1v-24.9H257.3z M344.4,328.9h18v3.6h-6.9v21.3h-4.1v-21.3h-7.1V328.9z
	 M380.1,328.9c4.9,0,7.5,1.8,7.5,6.5c0,3-1,4.5-2.8,5.5c2.2,0.8,3.4,2.4,3.4,5.7c0,5.1-3,7.1-7.9,7.1h-9.7v-24.7H380.1z
	 M374.7,332.3v7.1h5.3c2.4,0,3.4-1.2,3.4-3.6s-1.2-3.4-3.6-3.4H374.7z M374.7,342.9v7.3h5.5c2.4,0,4.1-0.8,4.1-3.9
	c0-2.8-2-3.6-4.1-3.6h-5.5V342.9z M398.2,328.9h15.6v3.4h-11.6v7.1h9.5v3.4h-9.5v7.3h11.6v3.4h-15.6V328.9z M428.2,328.9h7.9
	l6.1,24.7h-4.1l-1.8-7.3h-8.5l-1.8,7.3h-4.1L428.2,328.9z M428.8,342.9h6.9l-2.6-10.5h-1.8L428.8,342.9z M455.4,346.3v7.3h-4.1
	v-24.7h9.3c5.5,0,8.3,3,8.3,8.7c0,3.4-1.4,6.7-4.1,7.9l4.1,8.3h-4.5l-3.6-7.3h-5.5V346.3z M460.6,332.3h-5.5v10.5h5.5
	c3,0,4.3-2.6,4.3-5.3C464.9,334.8,463.7,332.3,460.6,332.3z M297.2,328.9h7.9l6.1,24.7h-4.1l-1.8-7.3h-8.5l-1.8,7.3h-4.1
	L297.2,328.9z M297.6,342.9h6.9l-2.6-10.5H300L297.6,342.9z M324.2,346.3v7.3h-4.1v-24.7h9.3c5.5,0,8.3,3,8.3,8.7
	c0,3.4-1.4,6.7-4.1,7.9l4.1,8.3h-4.5l-3.6-7.3h-5.5V346.3z M329.6,332.3h-5.5v10.5h5.5c3,0,4.3-2.6,4.3-5.3
	C333.9,334.8,332.5,332.3,329.6,332.3z M61.6,349c0,1.6-0.6,2.8-1.8,3.6s-2.8,1.4-4.7,1.4c-2.2,0-3.9-0.2-5.1-0.8v-2
	c0.8,0.4,1.6,0.6,2.4,0.8c0.8,0.2,1.8,0.2,2.6,0.2c1.4,0,2.4-0.2,3.2-0.8s1-1.2,1-2.2c0-0.6-0.2-1.2-0.4-1.6c-0.2-0.4-0.6-0.8-1.2-1
	c-0.6-0.4-1.4-0.8-2.6-1.2c-1.6-0.6-2.8-1.4-3.6-2.2c-0.8-0.8-1-1.8-1-3.2s0.6-2.4,1.6-3.4c1-0.8,2.4-1.2,4.3-1.2
	c1.8,0,3.4,0.4,5.1,1l-0.6,1.8c-1.4-0.6-3-1-4.5-1c-1.2,0-2,0.2-2.6,0.8c-0.6,0.4-1,1.2-1,2c0,0.6,0.2,1.2,0.4,1.6
	c0.2,0.4,0.6,0.8,1.2,1s1.4,0.6,2.4,1c1.8,0.6,3.2,1.4,3.9,2.2C61.4,346.5,61.6,347.5,61.6,349z M67.3,340v8.9c0,1,0.2,2,0.8,2.4
	c0.4,0.6,1.2,0.8,2.4,0.8c1.4,0,2.4-0.4,3-1.2c0.6-0.8,1-2,1-3.9V340h2v13.6H75l-0.2-1.8h-0.2c-0.4,0.6-1,1.2-1.8,1.6
	c-0.8,0.4-1.6,0.6-2.6,0.6c-1.6,0-2.8-0.4-3.6-1.2c-0.8-0.8-1.2-2-1.2-3.9V340H67.3z M87.7,354c-0.8,0-1.6-0.2-2.4-0.4
	c-0.8-0.4-1.4-0.8-1.8-1.4h-0.2c0,0.8,0.2,1.6,0.2,2.2v5.7h-2v-19.7h1.6l0.2,1.8l0,0c0.6-0.8,1.2-1.2,1.8-1.6
	c0.6-0.4,1.4-0.4,2.4-0.4c1.8,0,3.2,0.6,4.3,1.8c1,1.2,1.4,3,1.4,5.3s-0.4,4.1-1.4,5.3C90.8,353.4,89.4,354,87.7,354z M87.3,341.7
	c-1.4,0-2.4,0.4-3,1.2c-0.6,0.8-1,2-1,3.6v0.4c0,1.8,0.4,3.2,1,4.1c0.6,0.8,1.6,1.2,3,1.2c1.2,0,2-0.4,2.8-1.4c0.6-1,1-2.2,1-3.9
	c0-1.6-0.4-3-1-3.9C89.6,342.3,88.6,341.7,87.3,341.7z M103.6,354c-0.8,0-1.6-0.2-2.4-0.4c-0.8-0.4-1.4-0.8-1.8-1.4h-0.2
	c0,0.8,0.2,1.6,0.2,2.2v5.7h-2v-19.7h1.6l0.2,1.8l0,0c0.6-0.8,1.2-1.2,1.8-1.6s1.4-0.4,2.4-0.4c1.8,0,3.2,0.6,4.3,1.8
	c1,1.2,1.4,3,1.4,5.3s-0.4,4.1-1.4,5.3C106.8,353.4,105.4,354,103.6,354z M103.4,341.7c-1.4,0-2.4,0.4-3,1.2s-1,2-1,3.6v0.4
	c0,1.8,0.4,3.2,1,4.1c0.6,0.8,1.6,1.2,3,1.2c1.2,0,2-0.4,2.8-1.4c0.6-1,1-2.2,1-3.9c0-1.6-0.4-3-1-3.9
	C105.6,342.1,104.6,341.7,103.4,341.7z M125.3,346.9c0,2.2-0.6,4.1-1.6,5.3c-1.2,1.2-2.6,1.8-4.7,1.8c-1.2,0-2.2-0.2-3.2-0.8
	c-1-0.6-1.6-1.4-2.2-2.4c-0.6-1-0.8-2.2-0.8-3.9c0-2.2,0.6-4.1,1.6-5.3s2.6-1.8,4.7-1.8c1.8,0,3.4,0.6,4.5,1.8
	C124.6,343.1,125.3,344.7,125.3,346.9z M114.7,346.9c0,1.8,0.4,3,1,4.1c0.6,1,1.6,1.4,3,1.4c1.4,0,2.4-0.4,3-1.4
	c0.6-0.8,1-2.2,1-4.1c0-1.8-0.4-3-1-3.9c-0.6-0.8-1.8-1.4-3-1.4c-1.4,0-2.4,0.4-3,1.4C115.1,343.9,114.7,345.1,114.7,346.9z
	 M135.4,339.8c0.6,0,1.2,0,1.6,0.2l-0.2,1.8c-0.6-0.2-1-0.2-1.4-0.2c-1,0-2,0.4-2.8,1.4c-0.8,0.8-1.2,2-1.2,3.4v7.3h-2v-13.6h1.6
	l0.2,2.4l0,0c0.4-0.8,1.2-1.6,1.8-2C133.8,340,134.6,339.8,135.4,339.8z M145.5,352.2c0.4,0,0.8,0,1,0c0.4,0,0.6-0.2,0.8-0.2v1.6
	c-0.2,0.2-0.6,0.2-1,0.2s-0.8,0.2-1.2,0.2c-2.6,0-4.1-1.4-4.1-4.3v-8.1h-2v-1l2-0.8l0.8-2.8h1.2v3.2h4.1v1.6h-4.1v8.1
	c0,0.8,0.2,1.4,0.6,1.8C144.3,352,144.7,352.2,145.5,352.2z M156.1,354c-2,0-3.6-0.6-4.9-1.8c-1.2-1.2-1.8-2.8-1.8-5.1
	c0-2.2,0.6-3.9,1.6-5.3c1-1.2,2.6-2,4.5-2c1.6,0,3,0.6,4.1,1.6c1,1.2,1.4,2.6,1.4,4.5v1.2h-9.3c0,1.6,0.4,2.8,1.2,3.6
	c0.8,0.8,1.8,1.2,3.2,1.2c1.4,0,2.8-0.4,4.3-1v1.8c-0.8,0.4-1.4,0.6-2,0.6C157.7,353.8,157.1,354,156.1,354z M155.5,341.5
	c-1,0-2,0.4-2.6,1c-0.6,0.8-1,1.6-1.2,3h7.1c0-1.2-0.2-2.2-0.8-3C157.5,341.9,156.7,341.5,155.5,341.5z M174.3,351.8L174.3,351.8
	c-1,1.4-2.4,2-4.5,2c-1.8,0-3.2-0.6-4.3-1.8c-1-1.2-1.4-3-1.4-5.3s0.4-4.1,1.4-5.3c1-1.2,2.4-1.8,4.3-1.8c1.8,0,3.2,0.6,4.3,2h0.2
	v-1v-1v-5.5h2v19.5h-1.6L174.3,351.8z M170.3,352.2c1.4,0,2.4-0.4,3-1.2c0.6-0.8,1-2,1-3.6v-0.4c0-2-0.4-3.2-1-4.1s-1.6-1.2-3-1.2
	c-1.2,0-2.2,0.4-2.8,1.4c-0.6,1-1,2.2-1,4.1c0,1.8,0.4,3,1,3.9C168,351.8,169.1,352.2,170.3,352.2z M194.8,339.8
	c1.8,0,3.2,0.6,4.3,1.8c1,1.2,1.4,3,1.4,5.3c0,2.2-0.4,4.1-1.4,5.3c-1,1.2-2.4,1.8-4.3,1.8c-0.8,0-1.6-0.2-2.4-0.4
	c-0.8-0.4-1.4-0.8-1.8-1.4h-0.2l-0.4,1.8h-1.4v-19.5h2v4.7c0,1,0,2,0,2.8l0,0C191.4,340.4,192.8,339.8,194.8,339.8z M194.4,341.7
	c-1.4,0-2.4,0.4-3,1.2s-1,2.2-1,4.1c0,1.8,0.4,3.2,1,4.1c0.6,0.8,1.6,1.2,3,1.2c1.2,0,2.2-0.4,2.8-1.4c0.6-1,1-2.2,1-4.1
	s-0.4-3-1-4.1C196.6,342.1,195.8,341.7,194.4,341.7z M202.3,340h2.2l3,7.7c0.6,1.8,1,3,1.2,3.9l0,0c0.2-0.4,0.4-1.2,0.6-2.2
	c0.4-1,1.4-4.3,3.4-9.5h2.2l-5.9,15.6c-0.6,1.6-1.2,2.6-2,3.2c-0.8,0.6-1.8,1-2.8,1c-0.6,0-1.2,0-1.8-0.2v-1.6c0.4,0,1,0.2,1.6,0.2
	c1.4,0,2.4-0.8,3-2.4l0.8-2L202.3,340z"/>
</svg>
